<?xml version="1.0" encoding="utf-8"?>
<!-- Generator: Adobe Illustrator 26.0.1, SVG Export Plug-In . SVG Version: 6.00 Build 0)  -->
<svg version="1.1" id="Camada_1" xmlns="http://www.w3.org/2000/svg" xmlns:xlink="http://www.w3.org/1999/xlink" x="0px" y="0px"
	 viewBox="0 0 244 24" style="enable-background:new 0 0 244 24;" xml:space="preserve">
<style type="text/css">
	.st0{fill-rule:evenodd;clip-rule:evenodd;}
</style>
<path class="st0" d="M20.4,22.8c-0.1,0.4-0.4,0.7-0.9,0.9C19,23.9,18.6,24,18.2,24c-0.4,0-0.8-0.1-1.2-0.3c-0.5-0.2-0.7-0.6-0.6-0.9
	l2.4-13.2c0.1-0.4-0.1-0.8-0.5-1.1c-0.4-0.3-0.8-0.5-1.2-0.5c-0.4,0-0.9,0.2-1.4,0.5c-0.6,0.3-0.9,0.7-0.9,1.1l-2.4,13.3
	c-0.1,0.4-0.4,0.7-0.9,0.9C10.8,23.9,10.4,24,10,24c-0.4,0-0.8-0.1-1.2-0.3c-0.5-0.2-0.7-0.6-0.6-0.9l2.4-13.2
	c0.1-0.4-0.1-0.8-0.5-1.1C9.7,8.1,9.2,7.9,8.8,7.9c-0.4,0-0.9,0.2-1.4,0.5C6.8,8.8,6.5,9.1,6.4,9.5L4.1,22.8
	c-0.1,0.4-0.4,0.7-0.9,0.9C2.7,23.9,2.2,24,1.8,24c-0.4,0-0.8-0.1-1.2-0.3c-0.4-0.2-0.6-0.6-0.6-0.9L2.4,9.3
	c0.2-0.9,0.6-1.8,1.4-2.7c0.7-0.8,1.6-1.5,2.5-1.9c1.2-0.6,2.2-0.8,3.2-0.8c1.6,0,2.8,0.5,3.8,1.6c1.5-1,3-1.6,4.4-1.6
	c0.4,0,0.8,0,1.3,0.1c1.1,0.2,2,0.9,2.9,2c0.8,1.1,1.2,2.2,1,3.3L20.4,22.8z M35,18.6c-0.2,0.9-0.6,1.8-1.4,2.7
	c-0.8,0.8-1.6,1.4-2.5,1.9C30,23.7,28.9,24,28,24c-1.8,0-3.2-0.7-4.2-2.2c-0.8-1.1-1.1-2.2-1-3.2l2.4-13.4c0.1-0.4,0.4-0.7,0.9-0.9
	c0.5-0.2,0.9-0.3,1.3-0.3c0.3,0,0.7,0.1,1.1,0.3c0.5,0.3,0.8,0.6,0.7,0.9l-2.4,13.3c-0.1,0.4,0.1,0.8,0.5,1.1
	c0.4,0.3,0.8,0.4,1.3,0.4c0.4,0,0.9-0.2,1.4-0.5c0.5-0.4,0.9-0.7,0.9-1.1l2.4-13.2c0.1-0.4,0.4-0.7,0.9-0.9c0.5-0.2,0.9-0.3,1.3-0.3
	c0.3,0,0.7,0.1,1.1,0.3c0.5,0.3,0.8,0.6,0.7,0.9L35,18.6z M48.2,22.8c-0.1,0.4-0.4,0.7-0.9,0.9C46.8,23.9,46.4,24,46,24
	c-0.4,0-0.8-0.1-1.2-0.3c-0.5-0.2-0.7-0.6-0.6-0.9l2.4-13.2c0.1-0.4-0.1-0.8-0.5-1.1c-0.4-0.3-0.8-0.5-1.3-0.5
	c-0.4,0-0.9,0.2-1.4,0.5c-0.6,0.3-0.9,0.7-0.9,1.1L40,22.8c-0.1,0.4-0.4,0.7-0.9,0.9c-0.5,0.2-0.9,0.3-1.3,0.3
	c-0.4,0-0.8-0.1-1.2-0.3c-0.5-0.2-0.6-0.6-0.6-0.9l2.4-13.4c0.2-0.9,0.6-1.8,1.4-2.7c0.7-0.8,1.6-1.5,2.5-1.9
	c1.2-0.6,2.2-0.8,3.2-0.8c0.4,0,0.8,0,1.3,0.1c1.1,0.2,2,0.9,2.9,2c0.8,1.1,1.2,2.2,1,3.3L48.2,22.8z M58.9,18.4l1.6-8.9
	c0.1-0.4-0.1-0.7-0.5-1.1c-0.4-0.4-0.8-0.5-1.2-0.5c-0.4,0-0.9,0.2-1.4,0.5c-0.5,0.3-0.9,0.7-0.9,1.1l-1.6,8.9
	c-0.1,0.4,0.1,0.7,0.5,1.1c0.4,0.4,0.8,0.5,1.2,0.5c0.4,0,0.9-0.2,1.4-0.5C58.5,19.2,58.8,18.8,58.9,18.4z M62.9,18.6
	c-0.2,0.9-0.6,1.8-1.4,2.7c-0.8,0.8-1.6,1.4-2.5,1.9c-1.2,0.6-2.2,0.8-3.2,0.8c-1.8,0-3.2-0.7-4.2-2.2c-0.8-1.1-1.1-2.2-1-3.2
	l1.7-9.3c0.2-0.9,0.6-1.8,1.4-2.7c0.7-0.8,1.6-1.5,2.5-1.9c1.2-0.6,2.2-0.8,3.2-0.8c0.8,0,1.4,0.1,1.9,0.4C61.4,4,61.6,3,61.9,1.4
	C62.1,0.5,62.9,0,64.2,0c0.4,0,0.8,0.1,1.2,0.3c0.5,0.2,0.7,0.5,0.6,0.9L62.9,18.6z M72.8,18.4l1.6-8.9c0.1-0.4-0.1-0.7-0.5-1.1
	c-0.4-0.4-0.8-0.5-1.2-0.5c-0.4,0-0.9,0.2-1.4,0.5c-0.5,0.3-0.9,0.7-0.9,1.1l-1.6,8.9c-0.1,0.4,0.1,0.7,0.5,1.1
	c0.4,0.4,0.8,0.5,1.2,0.5c0.4,0,0.9-0.2,1.4-0.5C72.4,19.2,72.7,18.8,72.8,18.4z M76.8,18.6c-0.2,0.9-0.6,1.8-1.4,2.7
	c-0.8,0.8-1.6,1.4-2.5,1.9c-1.2,0.6-2.2,0.8-3.2,0.8c-1.8,0-3.2-0.7-4.2-2.2c-0.8-1.1-1.1-2.2-1-3.2l1.7-9.3
	c0.2-0.9,0.6-1.8,1.4-2.7c0.7-0.8,1.6-1.5,2.5-1.9c1.2-0.6,2.2-0.8,3.2-0.8c0.4,0,0.8,0,1.3,0.1c1.1,0.2,2,0.9,2.9,2
	c0.8,1.1,1.2,2.2,1,3.3L76.8,18.6z M87.8,20.1l1.1-5.9c0-0.2-0.1-0.5-0.4-0.7c-0.3-0.2-0.6-0.4-0.8-0.4c-0.3,0-0.6,0.1-1,0.3
	c-0.4,0.2-0.6,0.5-0.6,0.7l-1.1,5.9c0,0.2,0.1,0.5,0.4,0.7c0.3,0.2,0.6,0.4,0.8,0.4c0.3,0,0.6-0.1,0.9-0.3
	C87.6,20.6,87.8,20.4,87.8,20.1z M90.5,20.3c-0.1,0.6-0.4,1.2-0.9,1.8c-0.5,0.5-1.1,1-1.6,1.2c-0.8,0.4-1.5,0.6-2.1,0.6
	c-1.2,0-2.1-0.5-2.8-1.4c-0.5-0.8-0.8-1.5-0.6-2.2l1.1-6.2c0.1-0.6,0.4-1.2,0.9-1.8c0.5-0.6,1-1,1.6-1.3c0.8-0.4,1.5-0.6,2.1-0.6
	c0.5,0,0.9,0.1,1.3,0.3c0-0.2,0.2-0.9,0.4-2c0.1-0.6,0.6-0.9,1.5-0.9c0.3,0,0.5,0.1,0.8,0.2c0.3,0.2,0.4,0.4,0.4,0.6L90.5,20.3z
	 M97.1,20.1l1.1-5.9c0-0.2-0.1-0.5-0.4-0.7c-0.3-0.2-0.6-0.4-0.8-0.4c-0.3,0-0.6,0.1-1,0.3c-0.4,0.2-0.6,0.5-0.6,0.7l-1.1,5.9
	c0,0.2,0.1,0.5,0.4,0.7c0.3,0.2,0.6,0.4,0.8,0.4c0.3,0,0.6-0.1,0.9-0.3C96.9,20.6,97.1,20.4,97.1,20.1z M99.8,20.3
	c-0.1,0.6-0.4,1.2-0.9,1.8c-0.5,0.5-1.1,1-1.6,1.2c-0.8,0.4-1.5,0.6-2.1,0.6c-1.2,0-2.1-0.5-2.8-1.4c-0.5-0.8-0.8-1.5-0.6-2.2
	l1.1-6.2c0.1-0.6,0.4-1.2,1-1.8c0.5-0.6,1-1,1.7-1.3c0.8-0.4,1.5-0.6,2.1-0.6c0.3,0,0.6,0,0.9,0.1c0.7,0.1,1.3,0.6,1.9,1.3
	c0.6,0.7,0.8,1.5,0.6,2.2L99.8,20.3z M117.5,18.2c-0.3,1.6-1.1,3-2.6,4.1c-1.4,1.1-3,1.7-4.6,1.7c-1.8,0-3.2-0.7-4.2-2.2
	c-0.8-1.1-1.1-2.2-1-3.2l1.7-9.3c0.2-0.9,0.6-1.8,1.4-2.7c0.7-0.8,1.6-1.5,2.5-1.9c1.2-0.6,2.2-0.8,3.2-0.8c1.6,0,3,0.6,4,1.7
	c1,1.1,1.4,2.5,1.1,4.1c-0.2,1.1-1,1.7-2.3,1.7c-1,0-1.6-0.3-1.7-0.9c0-0.7,0-1.1,0-1.2c0-0.4-0.2-0.7-0.5-1
	c-0.4-0.3-0.8-0.4-1.2-0.4c-0.4,0-0.9,0.2-1.4,0.5c-0.6,0.3-0.9,0.7-0.9,1.1l-1.6,8.9c-0.1,0.4,0.1,0.8,0.5,1.1
	c0.4,0.3,0.8,0.4,1.3,0.4c0.5,0,0.9-0.2,1.4-0.5c0.4-0.3,0.8-0.7,0.9-1.1c0.1-0.2,0.2-0.5,0.3-1c0.4-0.6,1.1-0.9,2-0.9
	C117.1,16.5,117.7,17.1,117.5,18.2z M126.8,18.4l0.4-2.5h-2.5c-0.4,0-0.8,0.2-1.2,0.7c-0.4,0.5-0.7,0.9-0.8,1.3
	c-0.1,0.6,0,1,0.4,1.4c0.3,0.4,0.8,0.6,1.4,0.6c0.4,0,0.9-0.2,1.4-0.5C126.4,19.2,126.7,18.8,126.8,18.4z M130.8,18.6
	c-0.2,0.9-0.6,1.8-1.4,2.7c-0.8,0.8-1.6,1.4-2.5,1.9c-1.2,0.6-2.2,0.8-3.2,0.8c-1.7,0-3-0.6-4-1.8c-1-1.2-1.3-2.6-1-4.3
	c0.3-1.9,1.3-3.4,2.8-4.5c1.5-1,3.2-1.6,5.1-1.6c0.4,0,0.8,0,1.2,0.1c0.1-0.4,0.2-0.8,0.3-1.1c0.4-2-0.2-2.9-1.6-2.9
	c-0.5,0-0.9,0.2-1.4,0.5c-0.5,0.3-0.8,0.7-0.9,1.1c-0.1,0.2-0.2,0.6-0.3,1c-0.4,0.6-1.1,0.9-2,0.9c-1.3,0-1.9-0.5-1.7-1.7
	c0.3-1.6,1.1-3,2.6-4.1c1.4-1.1,3-1.7,4.6-1.7c0.4,0,0.8,0,1.3,0.1c1.1,0.2,2,0.9,2.9,2c0.8,1.1,1.2,2.2,1,3.3L130.8,18.6z
	 M140.6,18.4l1.6-8.9c0.1-0.4-0.1-0.7-0.5-1.1c-0.4-0.4-0.8-0.5-1.2-0.5c-0.4,0-0.9,0.2-1.4,0.5c-0.5,0.3-0.9,0.7-0.9,1.1l-1.6,8.9
	c-0.1,0.4,0.1,0.7,0.5,1.1c0.4,0.4,0.8,0.5,1.2,0.5c0.4,0,0.9-0.2,1.4-0.5C140.2,19.2,140.5,18.8,140.6,18.4z M144.6,18.6
	c-0.2,0.9-0.6,1.8-1.4,2.7c-0.8,0.8-1.6,1.4-2.5,1.9c-1.2,0.6-2.2,0.8-3.2,0.8c-1.8,0-3.2-0.7-4.2-2.2c-0.8-1.1-1.1-2.2-1-3.2
	l3.1-17.4c0.1-0.4,0.4-0.7,0.9-0.9c0.5-0.2,0.9-0.3,1.3-0.3c0.3,0,0.7,0.1,1.1,0.3c0.5,0.2,0.7,0.5,0.7,0.9L139,4.4
	c0.7-0.3,1.5-0.4,2.2-0.4c0.4,0,0.8,0,1.3,0.1c1.1,0.2,2,0.9,2.8,2c0.8,1.1,1.2,2.2,1,3.3L144.6,18.6z M155.8,10
	c0.1-0.5,0-1-0.4-1.4c-0.3-0.4-0.8-0.6-1.3-0.6c-0.4,0-0.9,0.2-1.4,0.5c-0.5,0.3-0.9,0.7-0.9,1.1l-0.4,2.4h2.5
	c0.4,0,0.8-0.2,1.2-0.7C155.5,10.8,155.8,10.3,155.8,10z M158.4,18.2c-0.3,1.6-1.1,3-2.6,4.1c-1.4,1.1-3,1.7-4.6,1.7
	c-1.8,0-3.2-0.7-4.2-2.2c-0.8-1.1-1.1-2.2-1-3.2l1.7-9.3c0.2-0.9,0.6-1.8,1.4-2.7c0.7-0.8,1.6-1.5,2.5-1.9c1.2-0.6,2.2-0.8,3.2-0.8
	c1.7,0,3,0.6,4,1.8c1,1.2,1.3,2.6,1,4.2c-0.3,1.9-1.3,3.4-2.9,4.5c-1.5,1-3.2,1.6-5.2,1.6h-1.1c-0.1,0.4-0.2,0.8-0.3,1.1
	c-0.3,1.9,0.2,2.8,1.6,2.8c0.5,0,0.9-0.2,1.4-0.5c0.4-0.3,0.7-0.7,0.9-1.1c0.1-0.2,0.2-0.6,0.3-1c0.4-0.6,1-0.9,2-0.9
	C158,16.5,158.6,17.1,158.4,18.2z M168.7,22c-0.2,0.9-0.5,1.5-1.1,1.8c-0.3,0.1-1,0.2-1.9,0.2c-1,0-1.7,0-2.1-0.1
	c-1.1-0.2-2-0.9-2.9-2c-0.8-1.1-1.1-2.2-0.9-3.3l3.1-17.4c0.1-0.4,0.4-0.7,0.9-0.9c0.5-0.2,0.9-0.3,1.3-0.3c0.4,0,0.8,0.1,1.2,0.3
	c0.5,0.2,0.7,0.5,0.6,0.9l-3.1,17.2c0,0.2,0.1,0.6,0.5,1.1c0.2,0.3,1.4,0.5,3.5,0.5C168.7,20.2,169,20.8,168.7,22z M179.9,10
	c0.1-0.5,0-1-0.4-1.4c-0.3-0.4-0.8-0.6-1.3-0.6c-0.4,0-0.9,0.2-1.4,0.5c-0.5,0.3-0.9,0.7-0.9,1.1l-0.4,2.4h2.5
	c0.4,0,0.8-0.2,1.2-0.7C179.6,10.8,179.9,10.3,179.9,10z M182.5,18.2c-0.3,1.6-1.1,3-2.6,4.1c-1.4,1.1-3,1.7-4.6,1.7
	c-1.8,0-3.2-0.7-4.2-2.2c-0.8-1.1-1.1-2.2-1-3.2l1.7-9.3c0.2-0.9,0.6-1.8,1.4-2.7c0.7-0.8,1.6-1.5,2.5-1.9c1.2-0.6,2.2-0.8,3.2-0.8
	c1.7,0,3,0.6,4,1.8c1,1.2,1.3,2.6,1,4.2c-0.3,1.9-1.3,3.4-2.9,4.5c-1.5,1-3.2,1.6-5.2,1.6h-1.1c-0.1,0.4-0.2,0.8-0.3,1.1
	c-0.3,1.9,0.2,2.8,1.6,2.8c0.5,0,0.9-0.2,1.4-0.5c0.4-0.3,0.7-0.7,0.9-1.1c0.1-0.2,0.2-0.6,0.3-1c0.4-0.6,1-0.9,2-0.9
	C182.1,16.5,182.7,17.1,182.5,18.2z M187.2,22.8c-0.1,0.4-0.4,0.7-0.9,0.9c-0.4,0.2-0.9,0.3-1.3,0.3c-0.4,0-0.8-0.1-1.2-0.3
	c-0.4-0.2-0.6-0.6-0.6-0.9l3.2-17.6c0.1-0.4,0.4-0.7,0.9-0.9c0.5-0.2,0.9-0.3,1.3-0.3c0.3,0,0.7,0.1,1.1,0.3
	c0.5,0.3,0.8,0.6,0.7,0.9L187.2,22.8z M191,1.7c-0.2,1.1-1,1.7-2.3,1.7c-1.3,0-1.9-0.6-1.7-1.7c0.2-1.1,1-1.7,2.3-1.7
	C190.6,0,191.2,0.6,191,1.7z M201.5,5.9c-0.1,0.7-0.4,1.2-0.7,1.5c-0.4,0.3-0.9,0.5-1.6,0.5h-0.5h-0.5c-0.6,0-1.1,0.1-1.7,0.4
	c-0.7,0.3-1.1,0.7-1.2,1.3L193,22.8c-0.1,0.4-0.4,0.7-0.9,0.9c-0.5,0.2-0.9,0.3-1.3,0.3c-0.4,0-0.8-0.1-1.2-0.3
	c-0.5-0.2-0.6-0.6-0.6-0.9l2.4-13.4c0.1-0.6,0.4-1.3,1-2.1c1.6-2.2,3.9-3.3,6.9-3.3c1,0,1.7,0.1,2,0.3
	C201.6,4.5,201.7,5.1,201.5,5.9z M209.9,10c0.1-0.5,0-1-0.4-1.4c-0.3-0.4-0.8-0.6-1.3-0.6c-0.4,0-0.9,0.2-1.4,0.5
	c-0.5,0.3-0.9,0.7-0.9,1.1l-0.4,2.4h2.5c0.4,0,0.8-0.2,1.2-0.7C209.5,10.8,209.8,10.3,209.9,10z M212.4,18.2c-0.3,1.6-1.1,3-2.6,4.1
	c-1.4,1.1-3,1.7-4.6,1.7c-1.8,0-3.2-0.7-4.2-2.2c-0.8-1.1-1.1-2.2-1-3.2l1.7-9.3c0.2-0.9,0.6-1.8,1.4-2.7c0.7-0.8,1.6-1.5,2.5-1.9
	c1.2-0.6,2.2-0.8,3.2-0.8c1.7,0,3,0.6,4,1.8c1,1.2,1.3,2.6,1,4.2c-0.3,1.9-1.3,3.4-2.9,4.5c-1.5,1-3.2,1.6-5.2,1.6h-1.1
	c-0.1,0.4-0.2,0.8-0.3,1.1c-0.3,1.9,0.2,2.8,1.6,2.8c0.5,0,0.9-0.2,1.4-0.5c0.4-0.3,0.7-0.7,0.9-1.1c0.1-0.2,0.2-0.6,0.3-1
	c0.4-0.6,1-0.9,2-0.9C212.1,16.5,212.6,17.1,212.4,18.2z M217.1,22.8c-0.1,0.4-0.4,0.7-0.9,0.9c-0.5,0.2-0.9,0.3-1.3,0.3
	c-0.4,0-0.8-0.1-1.2-0.3c-0.5-0.2-0.6-0.6-0.6-0.9l3.2-17.6c0.1-0.4,0.4-0.7,0.9-0.9c0.5-0.2,0.9-0.3,1.3-0.3c0.3,0,0.7,0.1,1.1,0.3
	c0.5,0.3,0.8,0.6,0.7,0.9L217.1,22.8z M220.9,1.7c-0.2,1.1-1,1.7-2.3,1.7c-1.3,0-1.9-0.6-1.7-1.7c0.2-1.1,1-1.7,2.3-1.7
	C220.5,0,221.1,0.6,220.9,1.7z M231.5,5.9c-0.1,0.7-0.4,1.2-0.7,1.5c-0.4,0.3-0.9,0.5-1.6,0.5h-0.5h-0.5c-0.6,0-1.1,0.1-1.7,0.4
	c-0.7,0.3-1.1,0.7-1.2,1.3l-2.4,13.2c-0.1,0.4-0.4,0.7-0.9,0.9c-0.5,0.2-0.9,0.3-1.3,0.3c-0.4,0-0.8-0.1-1.2-0.3
	c-0.5-0.2-0.6-0.6-0.6-0.9l2.4-13.4c0.1-0.6,0.4-1.3,1-2.1c1.6-2.2,3.9-3.3,6.9-3.3c1,0,1.7,0.1,2,0.3
	C231.5,4.5,231.6,5.1,231.5,5.9z M238.3,18.4l1.6-8.9c0.1-0.4-0.1-0.7-0.5-1.1c-0.4-0.4-0.8-0.5-1.2-0.5c-0.4,0-0.9,0.2-1.4,0.5
	c-0.5,0.3-0.9,0.7-0.9,1.1l-1.6,8.9c-0.1,0.4,0.1,0.7,0.5,1.1c0.4,0.4,0.8,0.5,1.2,0.5c0.4,0,0.9-0.2,1.4-0.5
	C237.9,19.2,238.2,18.8,238.3,18.4z M242.3,18.6c-0.2,0.9-0.6,1.8-1.4,2.7c-0.8,0.8-1.6,1.4-2.5,1.9c-1.2,0.6-2.2,0.8-3.2,0.8
	c-1.8,0-3.2-0.7-4.2-2.2c-0.8-1.1-1.1-2.2-1-3.2l1.7-9.3c0.2-0.9,0.6-1.8,1.4-2.7c0.7-0.8,1.6-1.5,2.5-1.9c1.2-0.6,2.2-0.8,3.2-0.8
	c0.4,0,0.8,0,1.3,0.1c1.1,0.2,2,0.9,2.9,2c0.8,1.1,1.2,2.2,1,3.3L242.3,18.6z"/>
</svg>
