<?xml version="1.0" encoding="utf-8"?>
<!-- Generator: Adobe Illustrator 26.0.2, SVG Export Plug-In . SVG Version: 6.00 Build 0)  -->
<svg version="1.1" id="Layer_1" xmlns="http://www.w3.org/2000/svg" xmlns:xlink="http://www.w3.org/1999/xlink" x="0px" y="0px"
	 viewBox="0 0 21.3 24" style="enable-background:new 0 0 21.3 24;" xml:space="preserve">
<path d="M0.4,22.5l1.4-5.6c-0.9-1.5-1.3-3.1-1.3-4.8c0-3,1-5.6,3.2-7.6C5.1,3,6.8,2.1,8.9,1.7c2.8-0.5,5.4,0.1,7.7,1.7
	c2,1.4,3.3,3.3,4,5.6l0,0c0.3,1.1,0.4,2.3,0.3,3.5c-0.2,2.5-1.2,4.6-2.9,6.4c-1.5,1.5-3.2,2.4-5.2,2.9c-2.4,0.5-4.7,0.1-6.9-1
	L0.4,22.5z M5.9,19.8c0.1,0,0.3,0,0.4,0.1c2,1,4,1.3,6.2,0.9c1.8-0.4,3.4-1.2,4.7-2.6c1.6-1.6,2.4-3.5,2.6-5.8
	c0.1-1.1,0-2.1-0.3-3.1l0,0c-0.6-2.1-1.8-3.8-3.6-5.1c-2.1-1.4-4.4-2-6.9-1.5C7.2,3.1,5.6,3.9,4.3,5.2C2.4,7,1.4,9.3,1.5,12
	c0,1.5,0.4,3,1.2,4.4c0.1,0.2,0.1,0.4,0.1,0.6l-1,4l3.8-1.1C5.7,19.9,5.8,19.8,5.9,19.8z M14.6,16.8c0.8-0.2,1.3-0.7,1.4-1.5
	c0.1-0.4,0.1-0.8-0.3-1.1c-0.5-0.3-1-0.6-1.6-0.9c-0.5-0.2-0.8-0.1-1.1,0.2c-0.3,0.3-0.6,0.6-0.8,0.9c-0.1,0.1-0.2,0.1-0.3,0.1
	c-0.9-0.4-1.8-0.9-2.5-1.6c-0.6-0.5-1.1-1.1-1.4-1.8c0-0.1,0-0.2,0-0.3c0.1-0.1,0.3-0.3,0.4-0.5C8.9,10,8.9,9.6,8.7,9.1
	C8.5,8.5,8.3,7.9,8.1,7.3C7.8,6.8,7.3,6.6,6.7,6.9C6.5,7,6.2,7.2,6,7.4C5.3,8,5,8.8,5.2,9.8c0.3,1.2,0.8,2.3,1.6,3.3
	c1.2,1.7,2.8,2.8,4.8,3.5c0.6,0.2,1.3,0.4,2,0.4C13.9,17,14.3,16.9,14.6,16.8z"/>
</svg>
